<svg width="302" height="76" viewBox="0 0 302 76" fill="none" xmlns="http://www.w3.org/2000/svg">
<path d="M69.92 43V15H75.4V26.8H75.6L80.6 15H86.24L80.4 28.36L86.52 43H80.44L75.68 30.76H75.4V43H69.92ZM95.3156 43H91.1156C89.9423 41.5067 89.1423 40.0133 88.7156 38.52C88.289 37.0267 88.0756 35.16 88.0756 32.92V22.56H93.3956V33.32C93.3956 35.7467 93.8756 37.5733 94.8356 38.8H98.5556V22.56H103.876V43H99.6756L98.9556 41.56C97.9423 42.52 96.729 43 95.3156 43ZM112.578 15V43H107.298V15H112.578ZM116.009 22.56H120.289L120.889 24C121.476 23.4667 122.022 23.0933 122.529 22.88C123.062 22.6667 123.849 22.56 124.889 22.56H128.489C129.609 23.6533 130.489 25.0667 131.129 26.8C131.769 28.5333 132.089 30.44 132.089 32.52C132.089 36.9733 130.756 40.4667 128.089 43H124.689C123.276 43 122.156 42.6267 121.329 41.88V49H116.009V22.56ZM121.329 38.8H125.169C126.156 37.12 126.649 35.08 126.649 32.68C126.649 30.28 126.142 28.3067 125.129 26.76H121.329V38.8ZM144.594 33.76H140.314C139.754 34.4533 139.474 35.32 139.474 36.36C139.474 37.4 139.768 38.2133 140.354 38.8H144.594V33.76ZM135.994 22.56H145.914C147.514 23.52 148.568 24.6267 149.074 25.88C149.581 27.1067 149.834 28.7867 149.834 30.92V36.92C149.834 39.1333 149.888 41.16 149.994 43H145.434L144.714 41.56C143.674 42.52 142.208 43 140.314 43H137.794C135.528 41.5067 134.394 39.36 134.394 36.56C134.394 33.7333 135.554 31.5067 137.874 29.88H141.634C142.674 29.88 143.648 30.2 144.554 30.84V28.84C144.554 27.8 144.101 27.1067 143.194 26.76H135.994V22.56ZM153.315 43V22.56H157.115L158.115 24.72C159.181 23.28 160.528 22.56 162.155 22.56H163.715V27.92H158.635V43H153.315ZM166.009 43V15H171.329V29.84H171.889L175.649 22.56H180.849L176.129 31.48L180.889 43H175.609L171.929 34.04H171.329V43H166.009ZM197.04 43L194.24 26.48H194.08L191.2 43H185.6L181.72 15H187.08L188.2 23.24L189.04 32.52H189.24L190.72 23.28L191.96 15H196.48L197.68 23.28L199.2 32.52H199.4L200.2 23.24L201.32 15H206.68L202.8 43H197.04ZM220.121 43L219.281 38.56H212.961L212.121 43H206.681L212.081 15H220.361L225.481 43H220.121ZM216.041 20.2L214.481 29.52L213.601 34.28H218.601L217.681 29.52L216.121 20.2H216.041ZM235.658 43H229.818V33.68L223.898 15H229.338L231.818 23.52L232.658 28.44H232.818L233.658 23.52L236.138 15H241.578L235.658 33.68V43Z" fill="black"/>
<path d="M267.132 46.8805C153.843 46.626 94.5435 47.6874 46.0675 65.9445L33.1601 74.9999C111.173 52.265 168.425 52.1382 270 51.4082L267.132 46.8805Z" fill="black" stroke="black"/>
<path d="M40.7674 70.0089C31.2249 62.9726 24.8116 59.7075 10.8599 55.4796L18.7065 51.0702C31.2496 55.8899 48.4019 65.4174 48.4019 65.4174L40.7674 70.0089Z" fill="black" stroke="black"/>
<path d="M60.048 63.9222C51.1558 57.5063 45.178 54.5309 32.1706 50.6835L39.4934 46.65C51.1864 51.0391 67.1731 59.7226 67.1731 59.7226L60.048 63.9222Z" fill="black" stroke="black"/>
<path d="M82.0927 62.2881C73.722 55.2874 67.9909 51.9153 55.3164 47.1979L62.9331 43.6705C74.2546 48.8393 89.5251 58.5817 89.5251 58.5817L82.0927 62.2881Z" fill="black" stroke="black"/>
<path d="M240.984 36.4444L239 32H263.596L267.365 36.4444H240.984Z" fill="black" stroke="black"/>
<path d="M65.4925 45.9258V38.8888C45.8806 42.1441 18.9866 48.1187 15.5062 49.8147C12.0258 51.5107 0.377866 58.6203 1.02601 58.3332C26.6545 52.2558 40.7347 49.6341 65.4925 45.9258Z" fill="black" stroke="black"/>
<path d="M86.9152 46.2961C91.9288 49.0494 94.3281 50.6013 97.8249 52.9628L106.553 52.2221C101.855 49.3664 99.2948 47.8752 95.4446 46.2961H86.9152Z" fill="black" stroke="black"/>
<path d="M122.025 46.4813C127.038 49.2345 129.438 50.7865 132.934 53.148L141.662 52.4072C136.965 49.5516 134.404 48.0604 130.554 46.4813H122.025Z" fill="black" stroke="black"/>
<path d="M147.414 46.4813C152.428 49.2345 154.827 50.7865 158.324 53.148L167.052 52.4072C162.355 49.5516 159.794 48.0604 155.944 46.4813H147.414Z" fill="black" stroke="black"/>
</svg>
